<svg id="Layer_1" data-name="Layer 1" xmlns="http://www.w3.org/2000/svg" viewBox="0 0 32 32"><defs><style>.cls-1{fill:#f7941d;}.cls-2{fill:#fff;}</style></defs><title>Asset 3</title><path class="cls-1" d="M389.66,378H378v11.76A16.57,16.57,0,0,1,389.66,378Z" transform="translate(-378 -378)"/><path class="cls-1" d="M410,389.76V378H398.34A16.57,16.57,0,0,1,410,389.76Z" transform="translate(-378 -378)"/><path class="cls-1" d="M398.34,410H410V398.24A16.57,16.57,0,0,1,398.34,410Z" transform="translate(-378 -378)"/><path class="cls-1" d="M378,398.24V410h11.66A16.57,16.57,0,0,1,378,398.24Z" transform="translate(-378 -378)"/><ellipse class="cls-1" cx="16" cy="16" rx="13.59" ry="13.61"/><path class="cls-2" d="M400.37,394.57v0h0a.09.09,0,0,0,0-.05h0a2.68,2.68,0,0,0-.9-1.36h0l0,0h-.57a3.9,3.9,0,0,0-1.24-.39q.18-.21.33-.42l0,0h0v0h0v0h0v0h0v0h0v0h0v0h0v0h0v0h0v0h0v0l0,0h0a2.48,2.48,0,0,0,.12-1.45h0a.06.06,0,0,1,0,0h0v0a.43.43,0,0,1,0,0l0-.06h0v0h0a2.46,2.46,0,0,0-.81-1.21h0l0,0H397l0,0a3.71,3.71,0,0,0-2.63-.25l-.25.06-.62-2.43-1.45.37.62,2.42-1.15.3-.63-2.42-1.44.37L390,389l-3,.77.39,1.54,1.21-.31a.74.74,0,0,1,.9.54h0l1.67,6.5a.5.5,0,0,1-.36.61l-1.05.27.06,1.84,3-.77.63,2.42,1.45-.37-.63-2.43,1.16-.3.62,2.43,1.45-.37-.63-2.44.6-.16a4.18,4.18,0,0,0,2.46-1.68l0,0h0v0h0l0,0h0v0h0v0h0v0h0v0h0v0h0v0h0v0h0v0h0v0h.05v0s0,0,0,0h0a2.76,2.76,0,0,0,.14-1.63h0v-.05h0s0,0,0-.06S400.37,394.59,400.37,394.57Zm-8.49-4.35,1.6-.41a2.14,2.14,0,0,1,1.47.11h.3a1.21,1.21,0,0,1,.44.63h0v0h0v0a0,0,0,0,1,0,0h0v0h0a1.2,1.2,0,0,1-.08.77h0v0h-.17a2.13,2.13,0,0,1-1.23.81l-1.61.42Zm5.65,5h0v0h0a1.23,1.23,0,0,1-.12.84h0v0h-.21a2.67,2.67,0,0,1-1.47.92l-1.9.49-.82-3.2,1.9-.48a2.71,2.71,0,0,1,1.73.09H397l0,0h0a1.29,1.29,0,0,1,.51.68h0v0h0v0s0,0,0,0Z" transform="translate(-378 -378)"/></svg>
